<svg id="Layer_1" data-name="Layer 1" xmlns="http://www.w3.org/2000/svg" xmlns:xlink="http://www.w3.org/1999/xlink" viewBox="0 0 166.52 318.96"><defs><style>.cls-1{fill:none;}.cls-2{clip-path:url(#clip-path);}.cls-3{fill:#f6f6f6;}.cls-4{clip-path:url(#clip-path-2);}.cls-5{fill:#d67c7c;}</style><clipPath id="clip-path"><path class="cls-1" d="M40.27,124.15a158.41,158.41,0,0,0-16.89,25.54,209.8,209.8,0,0,0-16.26,40.6c-4,13.93-7.1,28-7.12,42.49V233c0,1.85.06,3.71.17,5.57a110.06,110.06,0,0,0,2.68,20.44,77,77,0,0,0,23.2,39.08,82.4,82.4,0,0,0,20,13.26c10.79,5.14,22.26,6.94,35.05,7.57,2.68-.29,6.36-.74,10-1.06a71,71,0,0,0,26.11-7.85A75.06,75.06,0,0,0,139,293.48a80.22,80.22,0,0,0,14.23-22,89.63,89.63,0,0,0,7.13-38.69,159.56,159.56,0,0,0-3.56-28.3,199,199,0,0,0-7.55-26.78l-.83-1.1a54.7,54.7,0,0,0-11.47-10.38A55.38,55.38,0,0,0,105,156.15h-.2l-4.47.07-.92-4.37c-.21-.85-4-15.93-18.93-15.94-5.61,0-12.26,2-19.76,6l-3.37,1.78-2.85-2.53c-.4-.35-6.91-6.2-13.84-17.45a5.71,5.71,0,0,0-.39.47"/></clipPath><clipPath id="clip-path-2"><path class="cls-1" d="M42.59,0C18.44,58,31.85,98.12,44.46,119.33c7,11.73,13.69,17.68,13.69,17.68,9-4.78,16.38-6.61,22.34-6.61,19.79,0,24.29,20.24,24.29,20.24H105a62,62,0,0,1,39.13,14.13,54.78,54.78,0,0,1,8.67,8.55c-6.68-28.25-22.15-42.67-33.09-49.6a49.57,49.57,0,0,0-12-5.75,37.53,37.53,0,0,1,5.43-1.37,29.27,29.27,0,0,1,5.12-.45c11.87,0,17.51,7.64,17.51,7.64l23.89-6.46c-12.63-12.18-25.24-16.08-36.22-16.08a53,53,0,0,0-22.86,5.48,54.39,54.39,0,0,0-11,6.89,40.11,40.11,0,0,1,5.94-9.54c14-16.7,38.42-19.93,38.42-19.93L166.52,55.9A80.45,80.45,0,0,0,143,52.16c-37.83,0-57.11,31.82-64.61,48.47a87.48,87.48,0,0,0-3.84,9.91,60.78,60.78,0,0,1-.32-9.44C75.53,70.92,99.13,52,99.13,52l4.69-33C55.26,37.25,59.49,93.85,61,106.11c.19,1.52.34,2.36.34,2.36-.41-.62-.8-1.25-1.17-1.88-17.16-28.82.28-69.1.28-69.1Z"/></clipPath></defs><g id="Group_9" data-name="Group 9"><g id="Group_8" data-name="Group 8"><g id="Group_7" data-name="Group 7"><g id="Group_4" data-name="Group 4"><g class="cls-2"><g id="Group_3" data-name="Group 3"><rect id="Rectangle_12" data-name="Rectangle 12" class="cls-3" y="123.68" width="160.69" height="195.27"/></g></g></g><g id="Group_6" data-name="Group 6"><g class="cls-4"><g id="Group_5" data-name="Group 5"><rect id="Rectangle_13" data-name="Rectangle 13" class="cls-5" x="2.89" y="9.22" width="179.11" height="154.89" transform="matrix(0.04, -1, 1, 0.04, 2.15, 175.57)"/></g></g></g></g></g></g></svg>